<?xml version="1.0" encoding="UTF-8" standalone="no"?>
<svg  class="center" width="75px" height="75px" viewBox="-50 00 320 320" version="1.1" xmlns="http://www.w3.org/2000/svg" >
    <g  stroke="#7E89A3">
        <path d="M202.986,317 L12.097,317 C5.462,317 0.083,311.623 0.083,304.99 L0.083,12.093 C0.083,5.46 5.461,0.083 12.097,0.083 L202.986,0.083 C209.622,0.083 215,5.46 215,12.093 L215,304.99 C215,311.623 209.622,317 202.986,317 Z"
              id="bezel" stroke-width="2" fill="#FDFDFD" ></path>
        <path d="M202.986,317 L12.097,317 C5.462,317 0.083,311.623 0.083,304.99 L0.083,12.093 C0.083,5.46 5.461,0.083 12.097,0.083 L202.986,0.083 C209.622,0.083 215,5.46 215,12.093 L215,304.99 C215,311.623 209.622,317 202.986,317 Z"
              id="bezel-2" stroke-width="2" fill="#FDFDFD" ></path>
        <rect id="screen" fill="#FFFFFF" x="17" y="32" width="181.999"
              height="252.917"></rect>
        <circle id="lock"  cx="108.021" cy="300.021" r="8.021"></circle>
        <circle id="camera"cx="106.99" cy="16.99" r="2.99"></circle>
    </g>
</svg>